<?xml version="1.0" standalone="no"?>
<!DOCTYPE svg PUBLIC "-//W3C//DTD SVG 20010904//EN"
 "http://www.w3.org/TR/2001/REC-SVG-20010904/DTD/svg10.dtd">
<svg version="1.0" xmlns="http://www.w3.org/2000/svg"
 width="1772.000000pt" height="1181.000000pt" viewBox="0 0 1772.000000 1181.000000"
 preserveAspectRatio="xMidYMid meet">

<g transform="translate(0.000000,1181.000000) scale(0.100000,-0.100000)"
fill="#000000" stroke="none">
<path d="M14400 6796 c-252 -54 -419 -246 -445 -511 -14 -147 37 -292 143
-407 31 -33 109 -105 172 -158 142 -120 168 -148 180 -189 8 -28 7 -32 -6 -27
-9 3 -40 6 -69 6 l-54 0 -3 43 -3 42 -207 3 -207 2 -16 -23 c-9 -14 -17 -59
-21 -113 -13 -183 48 -305 202 -400 17 -10 59 -38 94 -62 80 -54 141 -72 260
-79 366 -20 636 240 618 595 -8 156 -55 228 -284 428 -186 163 -214 198 -214
265 0 79 62 130 111 90 21 -17 24 -27 24 -93 l0 -73 211 -3 c187 -2 213 0 225
14 10 13 14 50 14 143 0 116 -2 131 -27 183 -39 84 -71 121 -151 176 -40 27
-92 63 -117 80 -25 18 -72 41 -104 53 -77 26 -236 34 -326 15z m178 -1401 c4
-28 -40 -67 -74 -67 -33 0 -54 25 -54 64 l0 29 63 -3 c54 -3 62 -6 65 -23z"/>
<path d="M15725 6795 c-142 -30 -282 -123 -361 -242 -59 -90 -91 -197 -104
-347 -5 -71 -14 -145 -20 -165 -13 -49 -70 -517 -70 -578 0 -178 65 -295 224
-401 38 -26 83 -57 100 -69 85 -61 270 -87 416 -59 250 47 423 226 470 486 17
98 100 799 100 849 0 115 -43 237 -108 305 -35 36 -104 86 -225 164 -29 18
-74 40 -102 48 -71 22 -235 27 -320 9z m278 -507 c20 -24 22 -76 3 -103 -19
-28 -20 -37 -71 -455 -30 -243 -50 -380 -59 -388 -7 -7 -28 -14 -46 -14 -42
-1 -70 31 -70 81 1 73 98 827 111 855 15 32 63 58 94 50 11 -3 28 -15 38 -26z"/>
<path d="M1652 6778 c-10 -13 -559 -1678 -562 -1708 -5 -37 0 -40 70 -40 l70
0 -6 -27 c-4 -16 -8 -30 -10 -32 -2 -2 1 -10 7 -18 9 -10 58 -13 220 -13 235
0 216 -7 238 85 6 28 19 74 27 103 l15 53 122 -3 122 -3 3 -42 3 -42 -63 -3
c-52 -2 -63 -6 -66 -22 -5 -26 15 -36 76 -36 l52 0 0 -34 c0 -18 6 -39 14 -45
9 -8 78 -11 227 -9 l214 3 3 42 c4 59 -127 1663 -138 1691 -8 19 -17 22 -65
22 -52 0 -55 1 -55 26 0 14 -5 34 -10 45 -10 18 -24 19 -254 19 -183 0 -246
-3 -254 -12z m301 -1230 c-7 -12 -133 -10 -133 2 0 15 109 452 117 470 4 8 10
-93 14 -225 4 -132 5 -243 2 -247z"/>
<path d="M2800 6768 c-12 -28 -212 -1670 -208 -1707 3 -25 6 -26 65 -29 l62
-3 3 -42 3 -42 211 -3 c172 -2 213 0 223 12 6 8 30 157 52 332 22 175 42 320
44 323 3 2 7 2 9 0 8 -8 58 -454 58 -516 0 -35 4 -63 9 -63 5 0 9 -12 9 -26 0
-14 5 -34 10 -45 10 -18 23 -19 224 -19 174 0 216 3 226 14 9 12 0 92 -44 380
l-55 366 67 67 c74 75 128 171 158 283 27 98 25 265 -4 356 -28 92 -92 179
-163 224 -30 19 -76 52 -104 72 -27 21 -75 48 -105 60 -52 21 -71 23 -397 26
l-343 3 -10 -23z m612 -479 c42 -11 77 -60 60 -82 -5 -7 -15 -50 -21 -97 -13
-104 -35 -130 -107 -130 -39 0 -44 3 -44 23 0 26 30 266 36 285 4 15 27 15 76
1z"/>
<path d="M4496 6768 c-22 -35 -568 -1710 -562 -1725 4 -9 26 -13 76 -13 70 0
71 -1 64 -22 -4 -13 -8 -32 -8 -43 -1 -19 6 -20 209 -22 116 -2 215 0 222 5 6
4 24 57 40 117 l28 110 123 3 122 3 0 -45 0 -45 -57 -3 c-54 -3 -58 -5 -58
-28 0 -24 3 -25 62 -28 l62 -3 3 -42 3 -42 223 -3 c199 -2 223 -1 229 14 6 17
-123 1639 -136 1704 -7 35 -7 35 -63 38 l-57 3 -8 42 -9 42 -246 3 -247 2 -15
-22z m304 -988 l0 -240 -65 0 c-51 0 -65 3 -65 15 0 32 113 465 121 465 5 0 9
-108 9 -240z"/>
<path d="M5652 6778 c-16 -20 -222 -1720 -210 -1735 6 -8 35 -13 71 -13 l60 0
-6 -34 c-3 -19 0 -39 6 -45 13 -13 405 -15 426 -2 10 6 27 118 60 399 25 215
49 393 52 396 3 3 20 -116 38 -264 32 -259 33 -289 15 -412 -5 -36 -4 -38 20
-38 21 0 26 -5 26 -26 0 -14 5 -34 10 -45 10 -18 24 -19 244 -19 189 0 236 3
245 14 14 16 226 1709 217 1731 -4 11 -22 15 -68 15 l-63 0 0 42 0 43 -209 3
c-138 2 -213 -1 -221 -8 -8 -6 -16 -29 -19 -51 -19 -131 -21 -117 15 -121 40
-4 42 -10 60 -176 12 -112 11 -137 -11 -331 -13 -116 -27 -211 -32 -211 -4 0
-8 6 -8 12 0 26 -92 735 -99 763 -7 28 -10 30 -62 33 l-55 3 -10 42 -9 42
-236 3 c-181 2 -239 -1 -247 -10z"/>
<path d="M7121 6776 c-7 -8 -56 -375 -117 -872 -85 -692 -103 -859 -92 -865 7
-5 38 -9 68 -9 l55 0 0 -42 0 -43 210 -2 c116 -2 216 1 224 6 9 6 26 110 55
337 l41 329 68 3 c65 3 67 2 67 -21 0 -14 -16 -150 -36 -302 -19 -153 -34
-294 -32 -314 l3 -36 212 -3 c168 -2 214 0 225 11 16 16 225 1703 215 1730 -5
13 -20 17 -66 17 l-60 0 -3 43 -3 42 -211 3 c-169 2 -213 0 -223 -11 -6 -8
-14 -43 -18 -78 -6 -50 -8 -58 -13 -34 -5 29 -7 30 -67 33 l-62 3 -3 42 -3 42
-211 3 c-174 2 -213 0 -223 -12z m696 -196 c2 -14 -12 -144 -30 -290 l-33
-265 -67 -3 c-59 -3 -67 -1 -67 15 0 10 14 144 32 298 l33 280 65 -5 c60 -5
65 -7 67 -30z"/>
<path d="M8806 6775 c-9 -9 -24 -44 -35 -78 -10 -34 -134 -414 -276 -845 -141
-430 -255 -790 -253 -800 3 -14 16 -18 70 -20 l67 -3 -2 -42 -2 -42 211 -3
c161 -2 214 1 221 10 6 7 18 45 27 83 9 39 22 87 27 108 l10 38 122 -3 122 -3
3 -42 3 -43 -59 0 c-50 0 -60 -3 -65 -19 -7 -30 12 -41 70 -41 l53 0 0 -33 c0
-18 5 -38 12 -45 18 -18 431 -17 446 1 13 16 -124 1715 -140 1734 -6 8 -33 13
-64 13 l-54 0 0 33 c0 18 -5 38 -12 45 -9 9 -78 12 -249 12 -201 0 -240 -2
-253 -15z m301 -1220 c-5 -11 -22 -15 -72 -15 -36 0 -65 2 -65 5 0 8 99 403
113 450 10 35 13 11 20 -192 5 -128 7 -239 4 -248z"/>
<path d="M9931 6781 c-13 -8 -5 -128 54 -868 37 -472 72 -864 78 -870 5 -8 32
-13 63 -13 l54 0 0 -33 c0 -18 5 -38 12 -45 13 -13 441 -18 472 -6 11 4 84
213 225 643 330 1002 354 1079 348 1095 -5 12 -22 16 -73 16 l-66 0 7 27 c16
66 27 63 -219 63 -181 0 -226 -3 -235 -14 -7 -8 -20 -49 -30 -90 l-18 -76 27
0 c16 0 30 -7 34 -16 3 -9 6 -86 6 -171 0 -153 -1 -159 -57 -402 -31 -135 -60
-250 -65 -256 -4 -5 -8 195 -8 444 0 293 -4 459 -10 472 -9 15 -22 19 -65 19
-54 0 -55 0 -55 29 0 63 9 61 -239 61 -124 0 -233 -4 -240 -9z"/>
<path d="M11411 6781 c-9 -6 -18 -48 -26 -117 -7 -60 -55 -445 -105 -857 -51
-411 -90 -754 -86 -762 4 -11 21 -15 65 -15 l60 0 3 -42 3 -43 471 -3 c375 -2
474 0 482 11 12 14 40 215 44 317 l3 65 -62 3 -63 3 0 44 0 45 -114 0 -114 0
-7 -45 -6 -46 -67 3 -67 3 2 40 c1 22 7 84 14 138 l11 97 138 0 c98 0 141 4
148 13 12 14 55 354 48 373 -4 10 -24 14 -66 14 l-60 0 -1 43 -2 42 -6 -40 -6
-40 -64 -3 c-35 -2 -67 1 -71 5 -4 4 0 67 9 138 l16 130 253 3 c251 2 253 3
262 25 17 41 50 350 38 364 -6 8 -33 13 -68 13 l-57 0 1 43 1 42 -470 2 c-258
2 -476 -1 -484 -6z"/>
<path d="M12671 6776 c-7 -8 -57 -383 -117 -872 -85 -692 -103 -859 -92 -865
7 -5 38 -9 68 -9 l55 0 0 -42 0 -43 210 -2 c116 -2 216 1 224 6 9 6 25 106 52
327 40 319 45 351 55 342 8 -9 65 -521 62 -555 -2 -18 -1 -33 2 -33 3 0 10
-19 16 -42 l9 -43 223 -3 c199 -2 223 -1 229 14 3 9 -19 181 -49 382 l-55 365
67 66 c256 253 234 741 -40 881 -19 10 -44 28 -55 40 -28 31 -120 75 -183 89
-33 7 -171 11 -361 11 -255 0 -311 -2 -320 -14z m614 -490 c44 -19 62 -54 47
-93 -6 -15 -14 -58 -18 -96 -5 -58 -10 -71 -36 -92 -33 -28 -118 -37 -118 -12
0 19 29 247 36 280 7 32 34 36 89 13z"/>
</g>
</svg>
